# xmcd
#
# Track frame offsets:
#	150
#	16800
#	30975
#	44400
#	58050
#	73575
#	88050
#	106500
#	122775
#	136050
#	152175
#	168825
#	183000
#	196425
#	210075
#	225600
#	240075
#	258525
#	274800
#	288075
#	304200
#
# Disc length: 4273 seconds
#
# Revision: 1
# Processed by: cddbd v1.5.1PL0 Copyright (c) Steve Scherf et al.
# Submitted via: audiograbber 1.82.02
#
DISCID=0d10af15
DTITLE=Various Artist - Country Hits Today 9903C
DYEAR=1900
DGENRE=Karaoke
TTITLE0=Garth Brooks - Tearin' it up, Burnin' it down
TTITLE1=Lee Ann Womack - I'll think of a reason later
TTITLE2=Patty Loveless - Can't get enough
TTITLE3=Wade Hayes - Tore up from the floor up
TTITLE4=Wynonna Judd - Woman to woman
TTITLE5=Billy Ray Cyrus - Busy man
TTITLE6=Brooks and Dunn - I can't get over you
TTITLE7=Kinleys - Somebody's out there watching
TTITLE8=Michael Peterson - By the book
TTITLE9=Deryl Dodd - A bitter end
TTITLE10=Garth Brooks W - Vocals - Tearin' it up, Burnin' it down W - Vocals
TTITLE11=Lee Ann Womack W - Vocals - I'll think of a reason later W - Vocals
TTITLE12=Patty Loveless W - Vocals - Can't get enough W - Vocals
TTITLE13=Wade Hayes W - Vocals - Tore up from the floor up W - Vocals
TTITLE14=Wynonna Judd W - Vocals - Woman to woman W - Vocals
TTITLE15=Billy Ray Cyrus W - Vocals - Busy man W - Vocals
TTITLE16=Brooks and Dunn W - Vocals - I can't get over you W - Vocals
TTITLE17=Kinleys W - Vocals - Somebody's out there watching W - Vocals
TTITLE18=Michael Peterson W - Vocals - By the book W - Vocals
TTITLE19=Deryl Dodd W - Vocals - A bitter end W - Vocals
TTITLE20=Kinleys W - No Vocals - Somebody's out there watching W - No Vocals
EXTD=
EXTT0=
EXTT1=
EXTT2=
EXTT3=
EXTT4=
EXTT5=
EXTT6=
EXTT7=
EXTT8=
EXTT9=
EXTT10=
EXTT11=
EXTT12=
EXTT13=
EXTT14=
EXTT15=
EXTT16=
EXTT17=
EXTT18=
EXTT19=
EXTT20=
PLAYORDER=
